M48
; DRILL file {KiCad (6.0.4)} date Sun Mar 24 21:34:19 2024
; FORMAT={-:-/ absolute / inch / decimal}
; #@! TF.CreationDate,2024-03-24T21:34:19+02:00
; #@! TF.GenerationSoftware,Kicad,Pcbnew,(6.0.4)
; #@! TF.FileFunction,Plated,1,2,PTH
FMAT,2
INCH
; #@! TA.AperFunction,Plated,PTH,ViaDrill
T1C0.0157
; #@! TA.AperFunction,Plated,PTH,ComponentDrill
T2C0.0354
; #@! TA.AperFunction,Plated,PTH,ComponentDrill
T3C0.0394
; #@! TA.AperFunction,Plated,PTH,ViaDrill
T4C0.0472
%
G90
G05
T1
X4.4488Y-3.9961
X4.4523Y-4.1107
X4.6063Y-4.1929
X4.6654Y-3.7598
X4.685Y-3.6614
X4.7835Y-3.9764
X4.7943Y-3.8386
X4.8031Y-3.4646
X4.8228Y-3.7205
X4.9016Y-3.4252
X4.9409Y-3.937
X4.9409Y-4.0463
X4.9803Y-3.1299
X5.0Y-4.3307
X5.0591Y-3.7402
X5.2953Y-3.1102
X5.315Y-3.2874
X5.3346Y-3.5039
X5.3543Y-3.2283
X5.3543Y-4.0157
X5.3829Y-3.2677
X5.5118Y-2.7756
X5.5118Y-2.9921
X5.5118Y-3.1496
X5.5906Y-3.1102
X5.6102Y-4.0551
X5.7677Y-3.8386
X5.7874Y-3.1496
X5.7874Y-4.311
X5.8408Y-3.1947
X5.8858Y-3.1661
X6.1024Y-4.0157
X6.3588Y-3.8194
X6.378Y-3.4252
X6.4173Y-3.9961
X6.4567Y-3.563
X6.5354Y-3.7205
X6.6168Y-3.8029
X6.6732Y-3.5827
T2
X4.5305Y-3.4108
X4.6012Y-3.3401
X4.6299Y-3.0944
X4.7006Y-3.1651
X4.8929Y-3.0658
X4.9636Y-2.9951
X5.2878Y-2.9941
X5.3878Y-2.9941
X5.5906Y-2.7451
X5.5906Y-2.8451
X5.7603Y-2.9941
X5.8603Y-2.9941
X6.1621Y-3.0254
X6.2328Y-3.0961
X6.4608Y-3.1455
X6.5164Y-3.3404
X6.5316Y-3.0747
X6.5871Y-3.4111
T3
X4.9045Y-4.1461
X4.9045Y-4.2461
X5.0045Y-4.1461
X5.0045Y-4.2461
X5.1045Y-4.1461
X5.1045Y-4.2461
X5.2045Y-4.1461
X5.2045Y-4.2461
X5.3045Y-4.1461
X5.3045Y-4.2461
X5.4045Y-4.1461
X5.4045Y-4.2461
X5.5045Y-4.1461
X5.5045Y-4.2461
X5.6045Y-4.1461
X5.6045Y-4.2461
X5.7045Y-4.1461
X5.7045Y-4.2461
X5.8045Y-4.1461
X5.8045Y-4.2461
X5.9045Y-4.1461
X5.9045Y-4.2461
X6.0045Y-4.1461
X6.0045Y-4.2461
X6.1045Y-4.1461
X6.1045Y-4.2461
X6.2045Y-4.1461
X6.2045Y-4.2461
T4
X4.4685Y-4.2323
X4.7441Y-3.3465
X4.7638Y-3.7205
X4.9016Y-3.189
X4.9409Y-3.3071
X5.1181Y-2.8543
X5.4724Y-3.6417
X5.6299Y-3.0512
X5.6496Y-3.878
X5.7677Y-3.4252
X6.0039Y-3.3268
X6.0433Y-3.8976
X6.2402Y-3.2087
X6.5945Y-4.0157
T0
M30
