%TF.GenerationSoftware,KiCad,Pcbnew,(6.0.4)*%
%TF.CreationDate,2024-03-24T21:34:19+02:00*%
%TF.ProjectId,KiCad Design IR Sensor,4b694361-6420-4446-9573-69676e204952,rev?*%
%TF.SameCoordinates,Original*%
%TF.FileFunction,Soldermask,Top*%
%TF.FilePolarity,Negative*%
%FSLAX46Y46*%
G04 Gerber Fmt 4.6, Leading zero omitted, Abs format (unit mm)*
G04 Created by KiCad (PCBNEW (6.0.4)) date 2024-03-24 21:34:19*
%MOMM*%
%LPD*%
G01*
G04 APERTURE LIST*
G04 Aperture macros list*
%AMRoundRect*
0 Rectangle with rounded corners*
0 $1 Rounding radius*
0 $2 $3 $4 $5 $6 $7 $8 $9 X,Y pos of 4 corners*
0 Add a 4 corners polygon primitive as box body*
4,1,4,$2,$3,$4,$5,$6,$7,$8,$9,$2,$3,0*
0 Add four circle primitives for the rounded corners*
1,1,$1+$1,$2,$3*
1,1,$1+$1,$4,$5*
1,1,$1+$1,$6,$7*
1,1,$1+$1,$8,$9*
0 Add four rect primitives between the rounded corners*
20,1,$1+$1,$2,$3,$4,$5,0*
20,1,$1+$1,$4,$5,$6,$7,0*
20,1,$1+$1,$6,$7,$8,$9,0*
20,1,$1+$1,$8,$9,$2,$3,0*%
%AMRotRect*
0 Rectangle, with rotation*
0 The origin of the aperture is its center*
0 $1 length*
0 $2 width*
0 $3 Rotation angle, in degrees counterclockwise*
0 Add horizontal line*
21,1,$1,$2,0,0,$3*%
%AMFreePoly0*
4,1,20,0.000000,0.744959,0.073905,0.744508,0.209726,0.703889,0.328688,0.626782,0.421226,0.519385,0.479903,0.390333,0.500000,0.250000,0.500000,-0.250000,0.499851,-0.262216,0.476331,-0.402017,0.414519,-0.529596,0.319384,-0.634700,0.198574,-0.708877,0.061801,-0.746166,0.000000,-0.745033,0.000000,-0.750000,-0.500000,-0.750000,-0.500000,0.750000,0.000000,0.750000,0.000000,0.744959,
0.000000,0.744959,$1*%
%AMFreePoly1*
4,1,22,0.500000,-0.750000,0.000000,-0.750000,0.000000,-0.745033,-0.079941,-0.743568,-0.215256,-0.701293,-0.333266,-0.622738,-0.424486,-0.514219,-0.481581,-0.384460,-0.499164,-0.250000,-0.500000,-0.250000,-0.500000,0.250000,-0.499164,0.250000,-0.499963,0.256109,-0.478152,0.396186,-0.417904,0.524511,-0.324060,0.630769,-0.204165,0.706417,-0.067858,0.745374,0.000000,0.744959,0.000000,0.750000,
0.500000,0.750000,0.500000,-0.750000,0.500000,-0.750000,$1*%
G04 Aperture macros list end*
%ADD10C,0.200000*%
%ADD11FreePoly0,90.000000*%
%ADD12FreePoly1,90.000000*%
%ADD13C,1.800000*%
%ADD14RotRect,1.800000X1.800000X225.000000*%
%ADD15RoundRect,0.150000X-0.150000X0.587500X-0.150000X-0.587500X0.150000X-0.587500X0.150000X0.587500X0*%
%ADD16FreePoly0,0.000000*%
%ADD17FreePoly1,0.000000*%
%ADD18FreePoly1,270.000000*%
%ADD19FreePoly0,270.000000*%
%ADD20RoundRect,0.150000X0.150000X-0.587500X0.150000X0.587500X-0.150000X0.587500X-0.150000X-0.587500X0*%
%ADD21RotRect,1.800000X1.800000X135.000000*%
%ADD22RoundRect,0.135000X0.135000X0.185000X-0.135000X0.185000X-0.135000X-0.185000X0.135000X-0.185000X0*%
%ADD23R,1.800000X1.800000*%
%ADD24RoundRect,0.250000X0.475000X-0.250000X0.475000X0.250000X-0.475000X0.250000X-0.475000X-0.250000X0*%
%ADD25RoundRect,0.250000X-0.475000X0.250000X-0.475000X-0.250000X0.475000X-0.250000X0.475000X0.250000X0*%
%ADD26RoundRect,0.250000X-0.312500X-0.625000X0.312500X-0.625000X0.312500X0.625000X-0.312500X0.625000X0*%
%ADD27RoundRect,0.250000X0.450000X-0.262500X0.450000X0.262500X-0.450000X0.262500X-0.450000X-0.262500X0*%
%ADD28RoundRect,0.250000X0.625000X-0.312500X0.625000X0.312500X-0.625000X0.312500X-0.625000X-0.312500X0*%
%ADD29RoundRect,0.250000X0.625000X-0.400000X0.625000X0.400000X-0.625000X0.400000X-0.625000X-0.400000X0*%
%ADD30RoundRect,0.135000X-0.135000X-0.185000X0.135000X-0.185000X0.135000X0.185000X-0.135000X0.185000X0*%
%ADD31RoundRect,0.250000X-0.450000X0.262500X-0.450000X-0.262500X0.450000X-0.262500X0.450000X0.262500X0*%
%ADD32RoundRect,0.250000X-0.625000X0.312500X-0.625000X-0.312500X0.625000X-0.312500X0.625000X0.312500X0*%
%ADD33RoundRect,0.135000X-0.185000X0.135000X-0.185000X-0.135000X0.185000X-0.135000X0.185000X0.135000X0*%
%ADD34RoundRect,0.250000X0.262500X0.450000X-0.262500X0.450000X-0.262500X-0.450000X0.262500X-0.450000X0*%
%ADD35RoundRect,0.250000X0.312500X0.625000X-0.312500X0.625000X-0.312500X-0.625000X0.312500X-0.625000X0*%
%ADD36RoundRect,0.250000X-0.262500X-0.450000X0.262500X-0.450000X0.262500X0.450000X-0.262500X0.450000X0*%
%ADD37RoundRect,0.250000X0.650000X-0.325000X0.650000X0.325000X-0.650000X0.325000X-0.650000X-0.325000X0*%
%ADD38RotRect,1.800000X1.800000X315.000000*%
%ADD39FreePoly1,180.000000*%
%ADD40FreePoly0,180.000000*%
%ADD41R,1.700000X1.700000*%
%ADD42O,1.700000X1.700000*%
G04 APERTURE END LIST*
D10*
X128738095Y-73952380D02*
X129309523Y-73952380D01*
X129023809Y-74952380D02*
X129023809Y-73952380D01*
X129642857Y-74952380D02*
X129642857Y-73952380D01*
X130023809Y-73952380D01*
X130119047Y-74000000D01*
X130166666Y-74047619D01*
X130214285Y-74142857D01*
X130214285Y-74285714D01*
X130166666Y-74380952D01*
X130119047Y-74428571D01*
X130023809Y-74476190D01*
X129642857Y-74476190D01*
X130547619Y-73952380D02*
X131214285Y-73952380D01*
X130785714Y-74952380D01*
X140761904Y-75452380D02*
X141333333Y-75452380D01*
X141047619Y-76452380D02*
X141047619Y-75452380D01*
X141666666Y-76452380D02*
X141666666Y-75452380D01*
X142047619Y-75452380D01*
X142142857Y-75500000D01*
X142190476Y-75547619D01*
X142238095Y-75642857D01*
X142238095Y-75785714D01*
X142190476Y-75880952D01*
X142142857Y-75928571D01*
X142047619Y-75976190D01*
X141666666Y-75976190D01*
X143190476Y-76452380D02*
X142619047Y-76452380D01*
X142904761Y-76452380D02*
X142904761Y-75452380D01*
X142809523Y-75595238D01*
X142714285Y-75690476D01*
X142619047Y-75738095D01*
X143571428Y-75547619D02*
X143619047Y-75500000D01*
X143714285Y-75452380D01*
X143952380Y-75452380D01*
X144047619Y-75500000D01*
X144095238Y-75547619D01*
X144142857Y-75642857D01*
X144142857Y-75738095D01*
X144095238Y-75880952D01*
X143523809Y-76452380D01*
X144142857Y-76452380D01*
X151238095Y-85952380D02*
X151809523Y-85952380D01*
X151523809Y-86952380D02*
X151523809Y-85952380D01*
X152142857Y-86952380D02*
X152142857Y-85952380D01*
X152523809Y-85952380D01*
X152619047Y-86000000D01*
X152666666Y-86047619D01*
X152714285Y-86142857D01*
X152714285Y-86285714D01*
X152666666Y-86380952D01*
X152619047Y-86428571D01*
X152523809Y-86476190D01*
X152142857Y-86476190D01*
X153190476Y-86952380D02*
X153380952Y-86952380D01*
X153476190Y-86904761D01*
X153523809Y-86857142D01*
X153619047Y-86714285D01*
X153666666Y-86523809D01*
X153666666Y-86142857D01*
X153619047Y-86047619D01*
X153571428Y-86000000D01*
X153476190Y-85952380D01*
X153285714Y-85952380D01*
X153190476Y-86000000D01*
X153142857Y-86047619D01*
X153095238Y-86142857D01*
X153095238Y-86380952D01*
X153142857Y-86476190D01*
X153190476Y-86523809D01*
X153285714Y-86571428D01*
X153476190Y-86571428D01*
X153571428Y-86523809D01*
X153619047Y-86476190D01*
X153666666Y-86380952D01*
X156238095Y-82452380D02*
X156809523Y-82452380D01*
X156523809Y-83452380D02*
X156523809Y-82452380D01*
X157142857Y-83452380D02*
X157142857Y-82452380D01*
X157523809Y-82452380D01*
X157619047Y-82500000D01*
X157666666Y-82547619D01*
X157714285Y-82642857D01*
X157714285Y-82785714D01*
X157666666Y-82880952D01*
X157619047Y-82928571D01*
X157523809Y-82976190D01*
X157142857Y-82976190D01*
X158571428Y-82452380D02*
X158380952Y-82452380D01*
X158285714Y-82500000D01*
X158238095Y-82547619D01*
X158142857Y-82690476D01*
X158095238Y-82880952D01*
X158095238Y-83261904D01*
X158142857Y-83357142D01*
X158190476Y-83404761D01*
X158285714Y-83452380D01*
X158476190Y-83452380D01*
X158571428Y-83404761D01*
X158619047Y-83357142D01*
X158666666Y-83261904D01*
X158666666Y-83023809D01*
X158619047Y-82928571D01*
X158571428Y-82880952D01*
X158476190Y-82833333D01*
X158285714Y-82833333D01*
X158190476Y-82880952D01*
X158142857Y-82928571D01*
X158095238Y-83023809D01*
X145238095Y-88452380D02*
X145809523Y-88452380D01*
X145523809Y-89452380D02*
X145523809Y-88452380D01*
X146142857Y-89452380D02*
X146142857Y-88452380D01*
X146523809Y-88452380D01*
X146619047Y-88500000D01*
X146666666Y-88547619D01*
X146714285Y-88642857D01*
X146714285Y-88785714D01*
X146666666Y-88880952D01*
X146619047Y-88928571D01*
X146523809Y-88976190D01*
X146142857Y-88976190D01*
X147619047Y-88452380D02*
X147142857Y-88452380D01*
X147095238Y-88928571D01*
X147142857Y-88880952D01*
X147238095Y-88833333D01*
X147476190Y-88833333D01*
X147571428Y-88880952D01*
X147619047Y-88928571D01*
X147666666Y-89023809D01*
X147666666Y-89261904D01*
X147619047Y-89357142D01*
X147571428Y-89404761D01*
X147476190Y-89452380D01*
X147238095Y-89452380D01*
X147142857Y-89404761D01*
X147095238Y-89357142D01*
X168761904Y-101452380D02*
X169333333Y-101452380D01*
X169047619Y-102452380D02*
X169047619Y-101452380D01*
X169666666Y-102452380D02*
X169666666Y-101452380D01*
X170047619Y-101452380D01*
X170142857Y-101500000D01*
X170190476Y-101547619D01*
X170238095Y-101642857D01*
X170238095Y-101785714D01*
X170190476Y-101880952D01*
X170142857Y-101928571D01*
X170047619Y-101976190D01*
X169666666Y-101976190D01*
X171190476Y-102452380D02*
X170619047Y-102452380D01*
X170904761Y-102452380D02*
X170904761Y-101452380D01*
X170809523Y-101595238D01*
X170714285Y-101690476D01*
X170619047Y-101738095D01*
X172047619Y-101785714D02*
X172047619Y-102452380D01*
X171809523Y-101404761D02*
X171571428Y-102119047D01*
X172190476Y-102119047D01*
X151761904Y-99952380D02*
X152333333Y-99952380D01*
X152047619Y-100952380D02*
X152047619Y-99952380D01*
X152666666Y-100952380D02*
X152666666Y-99952380D01*
X153047619Y-99952380D01*
X153142857Y-100000000D01*
X153190476Y-100047619D01*
X153238095Y-100142857D01*
X153238095Y-100285714D01*
X153190476Y-100380952D01*
X153142857Y-100428571D01*
X153047619Y-100476190D01*
X152666666Y-100476190D01*
X154190476Y-100952380D02*
X153619047Y-100952380D01*
X153904761Y-100952380D02*
X153904761Y-99952380D01*
X153809523Y-100095238D01*
X153714285Y-100190476D01*
X153619047Y-100238095D01*
X155142857Y-100952380D02*
X154571428Y-100952380D01*
X154857142Y-100952380D02*
X154857142Y-99952380D01*
X154761904Y-100095238D01*
X154666666Y-100190476D01*
X154571428Y-100238095D01*
X141761904Y-99842380D02*
X142333333Y-99842380D01*
X142047619Y-100842380D02*
X142047619Y-99842380D01*
X142666666Y-100842380D02*
X142666666Y-99842380D01*
X143047619Y-99842380D01*
X143142857Y-99890000D01*
X143190476Y-99937619D01*
X143238095Y-100032857D01*
X143238095Y-100175714D01*
X143190476Y-100270952D01*
X143142857Y-100318571D01*
X143047619Y-100366190D01*
X142666666Y-100366190D01*
X144190476Y-100842380D02*
X143619047Y-100842380D01*
X143904761Y-100842380D02*
X143904761Y-99842380D01*
X143809523Y-99985238D01*
X143714285Y-100080476D01*
X143619047Y-100128095D01*
X144809523Y-99842380D02*
X144904761Y-99842380D01*
X145000000Y-99890000D01*
X145047619Y-99937619D01*
X145095238Y-100032857D01*
X145142857Y-100223333D01*
X145142857Y-100461428D01*
X145095238Y-100651904D01*
X145047619Y-100747142D01*
X145000000Y-100794761D01*
X144904761Y-100842380D01*
X144809523Y-100842380D01*
X144714285Y-100794761D01*
X144666666Y-100747142D01*
X144619047Y-100651904D01*
X144571428Y-100461428D01*
X144571428Y-100223333D01*
X144619047Y-100032857D01*
X144666666Y-99937619D01*
X144714285Y-99890000D01*
X144809523Y-99842380D01*
X137738095Y-93647380D02*
X138309523Y-93647380D01*
X138023809Y-94647380D02*
X138023809Y-93647380D01*
X138642857Y-94647380D02*
X138642857Y-93647380D01*
X139023809Y-93647380D01*
X139119047Y-93695000D01*
X139166666Y-93742619D01*
X139214285Y-93837857D01*
X139214285Y-93980714D01*
X139166666Y-94075952D01*
X139119047Y-94123571D01*
X139023809Y-94171190D01*
X138642857Y-94171190D01*
X140071428Y-93980714D02*
X140071428Y-94647380D01*
X139833333Y-93599761D02*
X139595238Y-94314047D01*
X140214285Y-94314047D01*
X121261904Y-81952380D02*
X121833333Y-81952380D01*
X121547619Y-82952380D02*
X121547619Y-81952380D01*
X122166666Y-82952380D02*
X122166666Y-81952380D01*
X122547619Y-81952380D01*
X122642857Y-82000000D01*
X122690476Y-82047619D01*
X122738095Y-82142857D01*
X122738095Y-82285714D01*
X122690476Y-82380952D01*
X122642857Y-82428571D01*
X122547619Y-82476190D01*
X122166666Y-82476190D01*
X123690476Y-82952380D02*
X123119047Y-82952380D01*
X123404761Y-82952380D02*
X123404761Y-81952380D01*
X123309523Y-82095238D01*
X123214285Y-82190476D01*
X123119047Y-82238095D01*
X124023809Y-81952380D02*
X124642857Y-81952380D01*
X124309523Y-82333333D01*
X124452380Y-82333333D01*
X124547619Y-82380952D01*
X124595238Y-82428571D01*
X124642857Y-82523809D01*
X124642857Y-82761904D01*
X124595238Y-82857142D01*
X124547619Y-82904761D01*
X124452380Y-82952380D01*
X124166666Y-82952380D01*
X124071428Y-82904761D01*
X124023809Y-82857142D01*
X119738095Y-92452380D02*
X120309523Y-92452380D01*
X120023809Y-93452380D02*
X120023809Y-92452380D01*
X120642857Y-93452380D02*
X120642857Y-92452380D01*
X121023809Y-92452380D01*
X121119047Y-92500000D01*
X121166666Y-92547619D01*
X121214285Y-92642857D01*
X121214285Y-92785714D01*
X121166666Y-92880952D01*
X121119047Y-92928571D01*
X121023809Y-92976190D01*
X120642857Y-92976190D01*
X121595238Y-92547619D02*
X121642857Y-92500000D01*
X121738095Y-92452380D01*
X121976190Y-92452380D01*
X122071428Y-92500000D01*
X122119047Y-92547619D01*
X122166666Y-92642857D01*
X122166666Y-92738095D01*
X122119047Y-92880952D01*
X121547619Y-93452380D01*
X122166666Y-93452380D01*
X119238095Y-86147380D02*
X119809523Y-86147380D01*
X119523809Y-87147380D02*
X119523809Y-86147380D01*
X120142857Y-87147380D02*
X120142857Y-86147380D01*
X120523809Y-86147380D01*
X120619047Y-86195000D01*
X120666666Y-86242619D01*
X120714285Y-86337857D01*
X120714285Y-86480714D01*
X120666666Y-86575952D01*
X120619047Y-86623571D01*
X120523809Y-86671190D01*
X120142857Y-86671190D01*
X121285714Y-86575952D02*
X121190476Y-86528333D01*
X121142857Y-86480714D01*
X121095238Y-86385476D01*
X121095238Y-86337857D01*
X121142857Y-86242619D01*
X121190476Y-86195000D01*
X121285714Y-86147380D01*
X121476190Y-86147380D01*
X121571428Y-86195000D01*
X121619047Y-86242619D01*
X121666666Y-86337857D01*
X121666666Y-86385476D01*
X121619047Y-86480714D01*
X121571428Y-86528333D01*
X121476190Y-86575952D01*
X121285714Y-86575952D01*
X121190476Y-86623571D01*
X121142857Y-86671190D01*
X121095238Y-86766428D01*
X121095238Y-86956904D01*
X121142857Y-87052142D01*
X121190476Y-87099761D01*
X121285714Y-87147380D01*
X121476190Y-87147380D01*
X121571428Y-87099761D01*
X121619047Y-87052142D01*
X121666666Y-86956904D01*
X121666666Y-86766428D01*
X121619047Y-86671190D01*
X121571428Y-86623571D01*
X121476190Y-86575952D01*
X187761904Y-90952380D02*
X188333333Y-90952380D01*
X188047619Y-91952380D02*
X188047619Y-90952380D01*
X188666666Y-91952380D02*
X188666666Y-90952380D01*
X189047619Y-90952380D01*
X189142857Y-91000000D01*
X189190476Y-91047619D01*
X189238095Y-91142857D01*
X189238095Y-91285714D01*
X189190476Y-91380952D01*
X189142857Y-91428571D01*
X189047619Y-91476190D01*
X188666666Y-91476190D01*
X190190476Y-91952380D02*
X189619047Y-91952380D01*
X189904761Y-91952380D02*
X189904761Y-90952380D01*
X189809523Y-91095238D01*
X189714285Y-91190476D01*
X189619047Y-91238095D01*
X191047619Y-91285714D02*
X191047619Y-91952380D01*
X190809523Y-90904761D02*
X190571428Y-91619047D01*
X191190476Y-91619047D01*
X187261904Y-93952380D02*
X187833333Y-93952380D01*
X187547619Y-94952380D02*
X187547619Y-93952380D01*
X188166666Y-94952380D02*
X188166666Y-93952380D01*
X188547619Y-93952380D01*
X188642857Y-94000000D01*
X188690476Y-94047619D01*
X188738095Y-94142857D01*
X188738095Y-94285714D01*
X188690476Y-94380952D01*
X188642857Y-94428571D01*
X188547619Y-94476190D01*
X188166666Y-94476190D01*
X189690476Y-94952380D02*
X189119047Y-94952380D01*
X189404761Y-94952380D02*
X189404761Y-93952380D01*
X189309523Y-94095238D01*
X189214285Y-94190476D01*
X189119047Y-94238095D01*
X190023809Y-93952380D02*
X190642857Y-93952380D01*
X190309523Y-94333333D01*
X190452380Y-94333333D01*
X190547619Y-94380952D01*
X190595238Y-94428571D01*
X190642857Y-94523809D01*
X190642857Y-94761904D01*
X190595238Y-94857142D01*
X190547619Y-94904761D01*
X190452380Y-94952380D01*
X190166666Y-94952380D01*
X190071428Y-94904761D01*
X190023809Y-94857142D01*
X185261904Y-86452380D02*
X185833333Y-86452380D01*
X185547619Y-87452380D02*
X185547619Y-86452380D01*
X186166666Y-87452380D02*
X186166666Y-86452380D01*
X186547619Y-86452380D01*
X186642857Y-86500000D01*
X186690476Y-86547619D01*
X186738095Y-86642857D01*
X186738095Y-86785714D01*
X186690476Y-86880952D01*
X186642857Y-86928571D01*
X186547619Y-86976190D01*
X186166666Y-86976190D01*
X187690476Y-87452380D02*
X187119047Y-87452380D01*
X187404761Y-87452380D02*
X187404761Y-86452380D01*
X187309523Y-86595238D01*
X187214285Y-86690476D01*
X187119047Y-86738095D01*
X188071428Y-86547619D02*
X188119047Y-86500000D01*
X188214285Y-86452380D01*
X188452380Y-86452380D01*
X188547619Y-86500000D01*
X188595238Y-86547619D01*
X188642857Y-86642857D01*
X188642857Y-86738095D01*
X188595238Y-86880952D01*
X188023809Y-87452380D01*
X188642857Y-87452380D01*
X189261904Y-88952380D02*
X189833333Y-88952380D01*
X189547619Y-89952380D02*
X189547619Y-88952380D01*
X190166666Y-89952380D02*
X190166666Y-88952380D01*
X190547619Y-88952380D01*
X190642857Y-89000000D01*
X190690476Y-89047619D01*
X190738095Y-89142857D01*
X190738095Y-89285714D01*
X190690476Y-89380952D01*
X190642857Y-89428571D01*
X190547619Y-89476190D01*
X190166666Y-89476190D01*
X191690476Y-89952380D02*
X191119047Y-89952380D01*
X191404761Y-89952380D02*
X191404761Y-88952380D01*
X191309523Y-89095238D01*
X191214285Y-89190476D01*
X191119047Y-89238095D01*
X192642857Y-89952380D02*
X192071428Y-89952380D01*
X192357142Y-89952380D02*
X192357142Y-88952380D01*
X192261904Y-89095238D01*
X192166666Y-89190476D01*
X192071428Y-89238095D01*
X192337393Y-92027869D02*
X192908822Y-92027869D01*
X192623108Y-93027869D02*
X192623108Y-92027869D01*
X193242155Y-93027869D02*
X193242155Y-92027869D01*
X193623108Y-92027869D01*
X193718346Y-92075489D01*
X193765965Y-92123108D01*
X193813584Y-92218346D01*
X193813584Y-92361203D01*
X193765965Y-92456441D01*
X193718346Y-92504060D01*
X193623108Y-92551679D01*
X193242155Y-92551679D01*
X194765965Y-93027869D02*
X194194536Y-93027869D01*
X194480250Y-93027869D02*
X194480250Y-92027869D01*
X194385012Y-92170727D01*
X194289774Y-92265965D01*
X194194536Y-92313584D01*
X195385012Y-92027869D02*
X195480250Y-92027869D01*
X195575489Y-92075489D01*
X195623108Y-92123108D01*
X195670727Y-92218346D01*
X195718346Y-92408822D01*
X195718346Y-92646917D01*
X195670727Y-92837393D01*
X195623108Y-92932631D01*
X195575489Y-92980250D01*
X195480250Y-93027869D01*
X195385012Y-93027869D01*
X195289774Y-92980250D01*
X195242155Y-92932631D01*
X195194536Y-92837393D01*
X195146917Y-92646917D01*
X195146917Y-92408822D01*
X195194536Y-92218346D01*
X195242155Y-92123108D01*
X195289774Y-92075489D01*
X195385012Y-92027869D01*
X190238095Y-82452380D02*
X190809523Y-82452380D01*
X190523809Y-83452380D02*
X190523809Y-82452380D01*
X191142857Y-83452380D02*
X191142857Y-82452380D01*
X191523809Y-82452380D01*
X191619047Y-82500000D01*
X191666666Y-82547619D01*
X191714285Y-82642857D01*
X191714285Y-82785714D01*
X191666666Y-82880952D01*
X191619047Y-82928571D01*
X191523809Y-82976190D01*
X191142857Y-82976190D01*
X192190476Y-83452380D02*
X192380952Y-83452380D01*
X192476190Y-83404761D01*
X192523809Y-83357142D01*
X192619047Y-83214285D01*
X192666666Y-83023809D01*
X192666666Y-82642857D01*
X192619047Y-82547619D01*
X192571428Y-82500000D01*
X192476190Y-82452380D01*
X192285714Y-82452380D01*
X192190476Y-82500000D01*
X192142857Y-82547619D01*
X192095238Y-82642857D01*
X192095238Y-82880952D01*
X192142857Y-82976190D01*
X192190476Y-83023809D01*
X192285714Y-83071428D01*
X192476190Y-83071428D01*
X192571428Y-83023809D01*
X192619047Y-82976190D01*
X192666666Y-82880952D01*
X182738095Y-82952380D02*
X183309523Y-82952380D01*
X183023809Y-83952380D02*
X183023809Y-82952380D01*
X183642857Y-83952380D02*
X183642857Y-82952380D01*
X184023809Y-82952380D01*
X184119047Y-83000000D01*
X184166666Y-83047619D01*
X184214285Y-83142857D01*
X184214285Y-83285714D01*
X184166666Y-83380952D01*
X184119047Y-83428571D01*
X184023809Y-83476190D01*
X183642857Y-83476190D01*
X185071428Y-82952380D02*
X184880952Y-82952380D01*
X184785714Y-83000000D01*
X184738095Y-83047619D01*
X184642857Y-83190476D01*
X184595238Y-83380952D01*
X184595238Y-83761904D01*
X184642857Y-83857142D01*
X184690476Y-83904761D01*
X184785714Y-83952380D01*
X184976190Y-83952380D01*
X185071428Y-83904761D01*
X185119047Y-83857142D01*
X185166666Y-83761904D01*
X185166666Y-83523809D01*
X185119047Y-83428571D01*
X185071428Y-83380952D01*
X184976190Y-83333333D01*
X184785714Y-83333333D01*
X184690476Y-83380952D01*
X184642857Y-83428571D01*
X184595238Y-83523809D01*
X188313584Y-84527869D02*
X188885012Y-84527869D01*
X188599298Y-85527869D02*
X188599298Y-84527869D01*
X189218346Y-85527869D02*
X189218346Y-84527869D01*
X189599298Y-84527869D01*
X189694536Y-84575489D01*
X189742155Y-84623108D01*
X189789774Y-84718346D01*
X189789774Y-84861203D01*
X189742155Y-84956441D01*
X189694536Y-85004060D01*
X189599298Y-85051679D01*
X189218346Y-85051679D01*
X190694536Y-84527869D02*
X190218346Y-84527869D01*
X190170727Y-85004060D01*
X190218346Y-84956441D01*
X190313584Y-84908822D01*
X190551679Y-84908822D01*
X190646917Y-84956441D01*
X190694536Y-85004060D01*
X190742155Y-85099298D01*
X190742155Y-85337393D01*
X190694536Y-85432631D01*
X190646917Y-85480250D01*
X190551679Y-85527869D01*
X190313584Y-85527869D01*
X190218346Y-85480250D01*
X190170727Y-85432631D01*
X109738095Y-106952380D02*
X110309523Y-106952380D01*
X110023809Y-107952380D02*
X110023809Y-106952380D01*
X110642857Y-107952380D02*
X110642857Y-106952380D01*
X111023809Y-106952380D01*
X111119047Y-107000000D01*
X111166666Y-107047619D01*
X111214285Y-107142857D01*
X111214285Y-107285714D01*
X111166666Y-107380952D01*
X111119047Y-107428571D01*
X111023809Y-107476190D01*
X110642857Y-107476190D01*
X111547619Y-106952380D02*
X112166666Y-106952380D01*
X111833333Y-107333333D01*
X111976190Y-107333333D01*
X112071428Y-107380952D01*
X112119047Y-107428571D01*
X112166666Y-107523809D01*
X112166666Y-107761904D01*
X112119047Y-107857142D01*
X112071428Y-107904761D01*
X111976190Y-107952380D01*
X111690476Y-107952380D01*
X111595238Y-107904761D01*
X111547619Y-107857142D01*
X126738095Y-83452380D02*
X127309523Y-83452380D01*
X127023809Y-84452380D02*
X127023809Y-83452380D01*
X127642857Y-84452380D02*
X127642857Y-83452380D01*
X128023809Y-83452380D01*
X128119047Y-83500000D01*
X128166666Y-83547619D01*
X128214285Y-83642857D01*
X128214285Y-83785714D01*
X128166666Y-83880952D01*
X128119047Y-83928571D01*
X128023809Y-83976190D01*
X127642857Y-83976190D01*
X129166666Y-84452380D02*
X128595238Y-84452380D01*
X128880952Y-84452380D02*
X128880952Y-83452380D01*
X128785714Y-83595238D01*
X128690476Y-83690476D01*
X128595238Y-83738095D01*
D11*
%TO.C,JP3*%
X115000000Y-94350000D03*
D12*
X115000000Y-95650000D03*
%TD*%
D13*
%TO.C,D9*%
X124279438Y-77871540D03*
D14*
X126075489Y-76075489D03*
%TD*%
D13*
%TO.C,D5*%
X115074214Y-86634282D03*
D14*
X116870265Y-84838231D03*
%TD*%
D15*
%TO.C,Q1*%
X120000000Y-99437500D03*
X119050000Y-97562500D03*
X120950000Y-97562500D03*
%TD*%
D16*
%TO.C,JP2*%
X125650000Y-98000000D03*
D17*
X124350000Y-98000000D03*
%TD*%
D18*
%TO.C,JP9*%
X156500000Y-85350000D03*
D19*
X156500000Y-86650000D03*
%TD*%
D20*
%TO.C,Q2*%
X163050000Y-99437500D03*
X164950000Y-99437500D03*
X164000000Y-97562500D03*
%TD*%
D12*
%TO.C,JP13*%
X169000000Y-105225489D03*
D11*
X169000000Y-103925489D03*
%TD*%
D12*
%TO.C,JP11*%
X169500000Y-94150000D03*
D11*
X169500000Y-92850000D03*
%TD*%
D21*
%TO.C,D6*%
X167312748Y-86641353D03*
D13*
X165516697Y-84845302D03*
%TD*%
D21*
%TO.C,D3*%
X158312748Y-78641353D03*
D13*
X156516697Y-76845302D03*
%TD*%
D17*
%TO.C,JP7*%
X141700000Y-87575489D03*
D16*
X143000000Y-87575489D03*
%TD*%
D22*
%TO.C,R10*%
X137010000Y-80000000D03*
X135990000Y-80000000D03*
%TD*%
D23*
%TO.C,D4*%
X136850489Y-76050489D03*
D13*
X134310489Y-76050489D03*
%TD*%
D24*
%TO.C,C6*%
X151000000Y-93450000D03*
X151000000Y-91550000D03*
%TD*%
D25*
%TO.C,C4*%
X138000000Y-88050000D03*
X138000000Y-89950000D03*
%TD*%
D24*
%TO.C,C2*%
X129000000Y-93450000D03*
X129000000Y-91550000D03*
%TD*%
D26*
%TO.C,R20*%
X162537500Y-107000000D03*
X165462500Y-107000000D03*
%TD*%
D27*
%TO.C,R19*%
X173500000Y-105412500D03*
X173500000Y-103587500D03*
%TD*%
D28*
%TO.C,R18*%
X173500000Y-100962500D03*
X173500000Y-98037500D03*
%TD*%
D29*
%TO.C,R17*%
X173500000Y-95050000D03*
X173500000Y-91950000D03*
%TD*%
D30*
%TO.C,R16*%
X128990000Y-82000000D03*
X130010000Y-82000000D03*
%TD*%
%TO.C,R15*%
X143845489Y-80575489D03*
X144865489Y-80575489D03*
%TD*%
D31*
%TO.C,R14*%
X164000000Y-92587500D03*
X164000000Y-94412500D03*
%TD*%
D32*
%TO.C,R13*%
X160000000Y-84537500D03*
X160000000Y-87462500D03*
%TD*%
D30*
%TO.C,R12*%
X150990000Y-80500000D03*
X152010000Y-80500000D03*
%TD*%
D33*
%TO.C,R11*%
X117500000Y-91010000D03*
X117500000Y-89990000D03*
%TD*%
D30*
%TO.C,R9*%
X155490000Y-81500000D03*
X156510000Y-81500000D03*
%TD*%
D34*
%TO.C,R8*%
X143412500Y-90500000D03*
X141587500Y-90500000D03*
%TD*%
D26*
%TO.C,R7*%
X140537500Y-84000000D03*
X143462500Y-84000000D03*
%TD*%
D35*
%TO.C,R6*%
X118037500Y-106000000D03*
X120962500Y-106000000D03*
%TD*%
D27*
%TO.C,R5*%
X111000000Y-102587500D03*
X111000000Y-104412500D03*
%TD*%
D28*
%TO.C,R4*%
X111000000Y-97537500D03*
X111000000Y-100462500D03*
%TD*%
D29*
%TO.C,R3*%
X111000000Y-91950000D03*
X111000000Y-95050000D03*
%TD*%
D36*
%TO.C,R2*%
X125912500Y-101500000D03*
X124087500Y-101500000D03*
%TD*%
D26*
%TO.C,R1*%
X125962500Y-90500000D03*
X123037500Y-90500000D03*
%TD*%
D37*
%TO.C,C5*%
X148000000Y-93975000D03*
X148000000Y-91025000D03*
%TD*%
%TO.C,C3*%
X138075489Y-85975000D03*
X138075489Y-83025000D03*
%TD*%
%TO.C,C1*%
X133000000Y-93975000D03*
X133000000Y-91025000D03*
%TD*%
D23*
%TO.C,D8*%
X148850489Y-76050489D03*
D13*
X146310489Y-76050489D03*
%TD*%
D14*
%TO.C,D7*%
X165901561Y-78098439D03*
D13*
X164105510Y-79894490D03*
%TD*%
%TO.C,D2*%
X142000000Y-72265000D03*
D23*
X142000000Y-69725000D03*
%TD*%
D38*
%TO.C,D1*%
X117598439Y-78598439D03*
D13*
X119394490Y-80394490D03*
%TD*%
D17*
%TO.C,JP14*%
X163000000Y-104000000D03*
D16*
X164300000Y-104000000D03*
%TD*%
D12*
%TO.C,JP12*%
X169500000Y-99650000D03*
D11*
X169500000Y-98350000D03*
%TD*%
D39*
%TO.C,JP10*%
X149800000Y-99000000D03*
D40*
X148500000Y-99000000D03*
%TD*%
D39*
%TO.C,JP8*%
X143500000Y-94500000D03*
D40*
X142200000Y-94500000D03*
%TD*%
%TO.C,JP6*%
X118850000Y-102500000D03*
D39*
X120150000Y-102500000D03*
%TD*%
D11*
%TO.C,JP5*%
X115000000Y-102850000D03*
D12*
X115000000Y-104150000D03*
%TD*%
D11*
%TO.C,JP4*%
X115000000Y-98350000D03*
D12*
X115000000Y-99650000D03*
%TD*%
D16*
%TO.C,JP1*%
X125500000Y-94000000D03*
D17*
X124200000Y-94000000D03*
%TD*%
D41*
%TO.C,J1*%
X124575489Y-107850489D03*
D42*
X124575489Y-105310489D03*
X127115489Y-107850489D03*
X127115489Y-105310489D03*
X129655489Y-107850489D03*
X129655489Y-105310489D03*
X132195489Y-107850489D03*
X132195489Y-105310489D03*
X134735489Y-107850489D03*
X134735489Y-105310489D03*
X137275489Y-107850489D03*
X137275489Y-105310489D03*
X139815489Y-107850489D03*
X139815489Y-105310489D03*
X142355489Y-107850489D03*
X142355489Y-105310489D03*
X144895489Y-107850489D03*
X144895489Y-105310489D03*
X147435489Y-107850489D03*
X147435489Y-105310489D03*
X149975489Y-107850489D03*
X149975489Y-105310489D03*
X152515489Y-107850489D03*
X152515489Y-105310489D03*
X155055489Y-107850489D03*
X155055489Y-105310489D03*
X157595489Y-107850489D03*
X157595489Y-105310489D03*
%TD*%
M02*
