%TF.GenerationSoftware,KiCad,Pcbnew,(6.0.4)*%
%TF.CreationDate,2024-03-24T21:34:19+02:00*%
%TF.ProjectId,KiCad Design IR Sensor,4b694361-6420-4446-9573-69676e204952,rev?*%
%TF.SameCoordinates,Original*%
%TF.FileFunction,Legend,Bot*%
%TF.FilePolarity,Positive*%
%FSLAX46Y46*%
G04 Gerber Fmt 4.6, Leading zero omitted, Abs format (unit mm)*
G04 Created by KiCad (PCBNEW (6.0.4)) date 2024-03-24 21:34:19*
%MOMM*%
%LPD*%
G01*
G04 APERTURE LIST*
G04 Aperture macros list*
%AMRotRect*
0 Rectangle, with rotation*
0 The origin of the aperture is its center*
0 $1 length*
0 $2 width*
0 $3 Rotation angle, in degrees counterclockwise*
0 Add horizontal line*
21,1,$1,$2,0,0,$3*%
G04 Aperture macros list end*
%ADD10C,1.800000*%
%ADD11RotRect,1.800000X1.800000X225.000000*%
%ADD12RotRect,1.800000X1.800000X135.000000*%
%ADD13R,1.800000X1.800000*%
%ADD14RotRect,1.800000X1.800000X315.000000*%
%ADD15R,1.700000X1.700000*%
%ADD16O,1.700000X1.700000*%
G04 APERTURE END LIST*
%LPC*%
D10*
%TO.C,D9*%
X124279438Y-77871540D03*
D11*
X126075489Y-76075489D03*
%TD*%
D10*
%TO.C,D5*%
X115074214Y-86634282D03*
D11*
X116870265Y-84838231D03*
%TD*%
D12*
%TO.C,D6*%
X167312748Y-86641353D03*
D10*
X165516697Y-84845302D03*
%TD*%
D12*
%TO.C,D3*%
X158312748Y-78641353D03*
D10*
X156516697Y-76845302D03*
%TD*%
D13*
%TO.C,D4*%
X136850489Y-76050489D03*
D10*
X134310489Y-76050489D03*
%TD*%
D13*
%TO.C,D8*%
X148850489Y-76050489D03*
D10*
X146310489Y-76050489D03*
%TD*%
D11*
%TO.C,D7*%
X165901561Y-78098439D03*
D10*
X164105510Y-79894490D03*
%TD*%
%TO.C,D2*%
X142000000Y-72265000D03*
D13*
X142000000Y-69725000D03*
%TD*%
D14*
%TO.C,D1*%
X117598439Y-78598439D03*
D10*
X119394490Y-80394490D03*
%TD*%
D15*
%TO.C,J1*%
X124575489Y-107850489D03*
D16*
X124575489Y-105310489D03*
X127115489Y-107850489D03*
X127115489Y-105310489D03*
X129655489Y-107850489D03*
X129655489Y-105310489D03*
X132195489Y-107850489D03*
X132195489Y-105310489D03*
X134735489Y-107850489D03*
X134735489Y-105310489D03*
X137275489Y-107850489D03*
X137275489Y-105310489D03*
X139815489Y-107850489D03*
X139815489Y-105310489D03*
X142355489Y-107850489D03*
X142355489Y-105310489D03*
X144895489Y-107850489D03*
X144895489Y-105310489D03*
X147435489Y-107850489D03*
X147435489Y-105310489D03*
X149975489Y-107850489D03*
X149975489Y-105310489D03*
X152515489Y-107850489D03*
X152515489Y-105310489D03*
X155055489Y-107850489D03*
X155055489Y-105310489D03*
X157595489Y-107850489D03*
X157595489Y-105310489D03*
%TD*%
M02*
